<svg width="13" height="13" viewBox="0 0 13 13" fill="none" xmlns="http://www.w3.org/2000/svg">
<path d="M12.165 7.56045C12.1329 7.52831 12.0927 7.50551 12.0487 7.4945C12.0046 7.48349 11.9584 7.48468 11.915 7.49795C10.9183 7.79919 9.85858 7.82439 8.8487 7.57086C7.83882 7.31733 6.91664 6.79457 6.18042 6.05829C5.44419 5.322 4.92152 4.39978 4.66808 3.38988C4.41464 2.37997 4.43993 1.32023 4.74126 0.32357C4.75463 0.280133 4.75591 0.233872 4.74496 0.189762C4.73401 0.145651 4.71124 0.105361 4.67911 0.0732233C4.64697 0.0410857 4.60668 0.0183169 4.56257 0.00736577C4.51846 -0.0035854 4.4722 -0.00230459 4.42876 0.0110703C3.16136 0.39994 2.04897 1.17879 1.25001 2.2367C0.347327 3.44027 -0.0909184 4.92907 0.015732 6.42975C0.122382 7.93044 0.76677 9.34229 1.83059 10.4061C2.89441 11.4699 4.30627 12.1143 5.80695 12.221C7.30764 12.3276 8.79643 11.8894 10 10.9867C11.0576 10.1874 11.836 9.07478 12.2244 7.80732C12.2374 7.76462 12.2388 7.7192 12.2284 7.67578C12.2179 7.63237 12.1961 7.59254 12.165 7.56045ZM9.70126 10.5898C8.59404 11.4231 7.22314 11.8284 5.84081 11.7313C4.45848 11.6342 3.15772 11.0412 2.17786 10.0613C1.19799 9.08149 0.604953 7.78072 0.507853 6.39839C0.410753 5.01606 0.816126 3.64517 1.64938 2.53795C2.29099 1.68949 3.15313 1.03338 4.14188 0.64107C3.91556 1.66712 3.95132 2.73365 4.24588 3.74224C4.54044 4.75082 5.0843 5.66897 5.82727 6.41194C6.57024 7.15491 7.48838 7.69877 8.49696 7.99332C9.50555 8.28788 10.5721 8.32365 11.5981 8.09732C11.2058 9.08607 10.5497 9.94821 9.70126 10.5898Z" fill="#5D5FEF"/>
</svg>
